<svg xmlns="http://www.w3.org/2000/svg" viewBox="0 0 995.07 270.32"><defs><style>.cls-1{fill:#dec1dc;}.cls-2{fill:none;stroke:#dec1dc;stroke-miterlimit:10;stroke-width:1.5px;}</style></defs><title>logotype</title><g id="Layer_2" data-name="Layer 2"><g id="type"><path class="cls-1" d="M84.7,202.07H74.28v9.29h-15v10.91H16.45v45.61H0V145.72H36.49c30.78,0,48.21,12.05,48.21,38.11Zm-16.45-4.56V183.67c0-16.94-11.08-24.11-34.21-24.11H16.45v48.87H56V197.51Z"/><path class="cls-1" d="M191.07,254v13.85H172.82v-8h-7.16v-8.47H159v-8.8H152.3v-9.12h-8.14V217.39H119.07v50.49H102.62V145.72h59.29v10.91h15v9.28h10.42v13.36c0,21.18-8.79,31.44-24.92,35.67v13.85h8.14v8.79h6.68v8.47h6.68v8Zm-20.2-74.11v-9.45H158.65V159.56H119.07v44h17.59C159.79,203.54,170.87,200.61,170.87,179.92Z"/><path class="cls-1" d="M225.44,159.89V196.7h39.42v7.17h12.7v13.84H260.78v-7.17H225.44v43h60.92v14.33H209V145.72h77.37v14.17Z"/><path class="cls-1" d="M386.37,231.56v18.89h-16v-17.1c0-11.73-14.5-18.24-30-24.76-17.59-7.33-36.16-16.29-36.16-33.88,0-17.43,15.63-30.62,39.9-30.62,17.6,0,32.91,9,39.1,25.08l-13.36,7.33c-4.4-11.89-14-18.57-25.74-18.57-14.33,0-23.45,6.19-23.45,17.1,0,7.82,11.56,13,24.92,18.74C364.22,201.59,386.37,211.2,386.37,231.56ZM323.5,256.15h45.12V270h-50v-7.66H306.88v-22H323.5Z"/><path class="cls-1" d="M420.74,159.89V196.7h39.42v7.17h12.71v13.84H456.09v-7.17H420.74v43h60.92v14.33H404.29V145.72h77.37v14.17Z"/><path class="cls-1" d="M591.13,145.72V267.88H574.67V229.6h-10.1v-9.12h-7.81v-9.61h-6.85v-9h-8V192h-8.3v-9.12h-7.82v-9.61H519v-9H516v103.6H499.58V145.72H526.3v8.95h8v9.78h6.84v9h7.82v9.93h8.3v9h8v9.77h6.84v9h2.6V145.72Z"/><path class="cls-1" d="M708.57,240.35c-8.47,19.88-24.43,30-45.28,30-32.42,0-54.24-26.06-54.24-65V171.45H625.5v33.72c0,30.78,15.15,51.31,37.62,51.31,13.69,0,24.76-6.35,30-20.69Zm-19.71-82.26H629.08V144.25h63v10.91h15v21.18H688.86Z"/><path class="cls-1" d="M742.94,159.89V196.7h39.42v7.17h12.7v13.84H778.29v-7.17H742.94v43h60.92v14.33H726.49V145.72h77.37v14.17Z"/><path class="cls-2" d="M713.34,14.59H673.59V122.91H657.14V14.59H617.4V.75h95.94Z"/><path class="cls-2" d="M742.82,14.92V51.73h39.42V58.9H795V72.74H778.17V65.58H742.82v43h60.92v14.33H726.37V.75h77.37V14.92Z"/><path class="cls-2" d="M899,109.39v13.85h-71.5v-.33h-5.87V.75h16.45V109.39Z"/><path class="cls-2" d="M933.4,14.92V51.73h39.42V58.9h12.71V72.74H968.75V65.58H933.4v43h60.92v14.33H917V.75h77.37V14.92Z"/></g></g></svg>